<?xml version="1.0" standalone="no"?>
<!DOCTYPE svg PUBLIC "-//W3C//DTD SVG 20010904//EN"
 "http://www.w3.org/TR/2001/REC-SVG-20010904/DTD/svg10.dtd">
<svg version="1.0" xmlns="http://www.w3.org/2000/svg"
 width="700.000000pt" height="700.000000pt" viewBox="0 0 700.000000 700.000000"
 preserveAspectRatio="xMidYMid meet">
<metadata>
Created by potrace 1.11, written by Peter Selinger 2001-2013
</metadata>
<g transform="translate(0.000000,700.000000) scale(0.100000,-0.100000)"
fill="#000000" stroke="none">
<path d="M0 3500 l0 -3500 3500 0 3500 0 0 3500 0 3500 -3500 0 -3500 0 0
-3500z m5330 1630 c239 -16 514 -63 745 -127 l100 -28 3 -214 c2 -169 0 -212
-10 -208 -393 161 -676 226 -983 227 -308 0 -534 -65 -671 -192 -107 -100
-151 -214 -141 -367 10 -169 75 -270 220 -341 115 -56 217 -82 577 -150 345
-65 450 -91 597 -146 343 -127 548 -344 608 -643 24 -118 16 -363 -15 -471
-64 -221 -213 -396 -432 -506 -218 -109 -449 -159 -798 -171 -346 -11 -724 45
-1122 167 l-108 33 0 224 c0 122 2 223 5 223 3 0 34 -14 68 -31 154 -78 414
-171 597 -213 296 -67 666 -66 895 5 165 50 305 152 367 266 55 101 72 247 43
372 -35 146 -118 242 -277 320 -129 63 -231 93 -478 137 -313 56 -437 83 -575
129 -224 73 -367 155 -477 274 -124 134 -179 288 -181 506 -2 262 72 446 246
612 256 243 660 349 1197 313z m-1760 -235 l0 -185 -630 0 -630 0 -2 -1427 -3
-1428 -242 -3 -243 -2 0 1430 0 1430 -632 2 -633 3 -3 170 c-1 93 0 175 2 182
4 11 293 13 1511 13 l1505 0 0 -185z"/>
</g>
</svg>
